<mxfile host="app.diagrams.net" modified="2024-01-26T20:49:53.514Z" agent="Mozilla/5.0 (Windows NT 10.0; Win64; x64) AppleWebKit/537.36 (KHTML, like Gecko) Chrome/120.0.0.0 Safari/537.36" etag="ov67gOSuF5aKv_J2sGnf" version="23.0.2" type="google">
  <diagram name="Page-1" id="R8I3gEmvObIa3M096mae">
    <mxGraphModel grid="1" page="1" gridSize="10" guides="1" tooltips="1" connect="1" arrows="1" fold="1" pageScale="1" pageWidth="850" pageHeight="1100" math="0" shadow="0">
      <root>
        <mxCell id="0" />
        <mxCell id="1" parent="0" />
        <mxCell id="5sU5fWec5pcdOkhXHPIO-1" value="اضافه کردن کاربر" style="swimlane;html=1;childLayout=stackLayout;resizeParent=1;resizeParentMax=0;horizontal=0;startSize=20;horizontalStack=0;" vertex="1" parent="1">
          <mxGeometry x="94" y="490" width="1580" height="290" as="geometry" />
        </mxCell>
        <mxCell id="5sU5fWec5pcdOkhXHPIO-2" value="مدیر سامانه" style="swimlane;html=1;startSize=20;horizontal=0;" vertex="1" parent="5sU5fWec5pcdOkhXHPIO-1">
          <mxGeometry x="20" width="1560" height="80" as="geometry">
            <mxRectangle x="20" width="490" height="30" as="alternateBounds" />
          </mxGeometry>
        </mxCell>
        <mxCell id="hiHx3Ub0WEwXh6XVZyqC-10" style="edgeStyle=orthogonalEdgeStyle;rounded=0;orthogonalLoop=1;jettySize=auto;html=1;" edge="1" parent="5sU5fWec5pcdOkhXHPIO-2" source="5sU5fWec5pcdOkhXHPIO-4" target="hiHx3Ub0WEwXh6XVZyqC-1">
          <mxGeometry relative="1" as="geometry" />
        </mxCell>
        <mxCell id="5sU5fWec5pcdOkhXHPIO-4" value="" style="ellipse;fillColor=strokeColor;html=1;" vertex="1" parent="5sU5fWec5pcdOkhXHPIO-2">
          <mxGeometry x="45" y="23" width="30" height="30" as="geometry" />
        </mxCell>
        <mxCell id="5sU5fWec5pcdOkhXHPIO-6" value="&lt;font style=&quot;font-size: 14px;&quot;&gt;وارد کردن اطلاعات کاربری&lt;/font&gt;" style="html=1;align=center;verticalAlign=top;rounded=1;absoluteArcSize=1;arcSize=13;dashed=0;whiteSpace=wrap;" vertex="1" parent="5sU5fWec5pcdOkhXHPIO-2">
          <mxGeometry x="302" y="15" width="140" height="40" as="geometry" />
        </mxCell>
        <mxCell id="5sU5fWec5pcdOkhXHPIO-7" style="edgeStyle=orthogonalEdgeStyle;rounded=0;orthogonalLoop=1;jettySize=auto;html=1;" edge="1" parent="5sU5fWec5pcdOkhXHPIO-2" source="5sU5fWec5pcdOkhXHPIO-6" target="5sU5fWec5pcdOkhXHPIO-8">
          <mxGeometry relative="1" as="geometry">
            <mxPoint x="599" y="35.04347826086973" as="sourcePoint" />
            <mxPoint x="624" y="35" as="targetPoint" />
          </mxGeometry>
        </mxCell>
        <mxCell id="5sU5fWec5pcdOkhXHPIO-8" value="&lt;font style=&quot;font-size: 14px;&quot;&gt;تایید اطلاعات وارد شده&lt;/font&gt;" style="shape=mxgraph.uml25.action;html=1;align=center;verticalAlign=middle;absoluteArcSize=1;arcSize=10;dashed=0;spacingRight=10;whiteSpace=wrap;" vertex="1" parent="5sU5fWec5pcdOkhXHPIO-2">
          <mxGeometry x="501" y="13.5" width="146" height="43" as="geometry" />
        </mxCell>
        <mxCell id="hiHx3Ub0WEwXh6XVZyqC-1" value="&lt;font style=&quot;font-size: 14px;&quot;&gt;درخواست اضافه کردن کاربر جدید&lt;/font&gt;" style="html=1;align=center;verticalAlign=top;rounded=1;absoluteArcSize=1;arcSize=13;dashed=0;whiteSpace=wrap;" vertex="1" parent="5sU5fWec5pcdOkhXHPIO-2">
          <mxGeometry x="108" y="18" width="140" height="40" as="geometry" />
        </mxCell>
        <mxCell id="5sU5fWec5pcdOkhXHPIO-9" value="سامانه" style="swimlane;html=1;startSize=20;horizontal=0;" vertex="1" parent="5sU5fWec5pcdOkhXHPIO-1">
          <mxGeometry x="20" y="80" width="1560" height="210" as="geometry" />
        </mxCell>
        <mxCell id="5sU5fWec5pcdOkhXHPIO-10" value="" style="ellipse;html=1;shape=endState;fillColor=strokeColor;" vertex="1" parent="5sU5fWec5pcdOkhXHPIO-9">
          <mxGeometry x="1486" y="65" width="30" height="30" as="geometry" />
        </mxCell>
        <mxCell id="5sU5fWec5pcdOkhXHPIO-11" value="&lt;font style=&quot;font-size: 14px;&quot;&gt;درخواست اطلاعات کاربرجدید&lt;/font&gt;" style="html=1;align=center;verticalAlign=top;rounded=1;absoluteArcSize=1;arcSize=13;dashed=0;whiteSpace=wrap;" vertex="1" parent="5sU5fWec5pcdOkhXHPIO-9">
          <mxGeometry x="108" y="60" width="140" height="40" as="geometry" />
        </mxCell>
        <mxCell id="5sU5fWec5pcdOkhXHPIO-12" style="edgeStyle=orthogonalEdgeStyle;rounded=0;orthogonalLoop=1;jettySize=auto;html=1;" edge="1" parent="5sU5fWec5pcdOkhXHPIO-9" source="5sU5fWec5pcdOkhXHPIO-19" target="5sU5fWec5pcdOkhXHPIO-15">
          <mxGeometry relative="1" as="geometry">
            <Array as="points" />
            <mxPoint x="846" y="30.999999999999773" as="sourcePoint" />
          </mxGeometry>
        </mxCell>
        <mxCell id="5sU5fWec5pcdOkhXHPIO-13" style="edgeStyle=orthogonalEdgeStyle;rounded=0;orthogonalLoop=1;jettySize=auto;html=1;" edge="1" parent="5sU5fWec5pcdOkhXHPIO-9" source="5sU5fWec5pcdOkhXHPIO-15" target="5sU5fWec5pcdOkhXHPIO-21">
          <mxGeometry relative="1" as="geometry">
            <mxPoint x="929" y="79.63999999999999" as="sourcePoint" />
            <mxPoint x="1052" y="80" as="targetPoint" />
          </mxGeometry>
        </mxCell>
        <mxCell id="5sU5fWec5pcdOkhXHPIO-14" value="&lt;span style=&quot;font-size: 12px;&quot;&gt;[کاربری با اطلاعات دریافت شده از مدیر سامانه از قبل در سامانه وجود داشته باشد]&lt;br&gt;&lt;/span&gt;" style="edgeLabel;html=1;align=center;verticalAlign=middle;resizable=0;points=[];" connectable="0" vertex="1" parent="5sU5fWec5pcdOkhXHPIO-13">
          <mxGeometry x="-0.362" y="1" relative="1" as="geometry">
            <mxPoint x="57" y="-9" as="offset" />
          </mxGeometry>
        </mxCell>
        <mxCell id="5sU5fWec5pcdOkhXHPIO-15" value="" style="rhombus;" vertex="1" parent="5sU5fWec5pcdOkhXHPIO-9">
          <mxGeometry x="863" y="65" width="30" height="30" as="geometry" />
        </mxCell>
        <mxCell id="jqP7w9mGof0g6PmrAmtQ-3" style="edgeStyle=orthogonalEdgeStyle;rounded=0;orthogonalLoop=1;jettySize=auto;html=1;" edge="1" parent="5sU5fWec5pcdOkhXHPIO-9" source="5sU5fWec5pcdOkhXHPIO-16" target="jqP7w9mGof0g6PmrAmtQ-1">
          <mxGeometry relative="1" as="geometry" />
        </mxCell>
        <mxCell id="5sU5fWec5pcdOkhXHPIO-16" value="&lt;span style=&quot;font-size: 14px;&quot;&gt;اعلام تکراری بودن اطلاعات وارد شده&lt;/span&gt;" style="html=1;align=center;verticalAlign=top;rounded=1;absoluteArcSize=1;arcSize=13;dashed=0;whiteSpace=wrap;" vertex="1" parent="5sU5fWec5pcdOkhXHPIO-9">
          <mxGeometry x="808" y="130" width="140" height="40" as="geometry" />
        </mxCell>
        <mxCell id="5sU5fWec5pcdOkhXHPIO-17" style="edgeStyle=orthogonalEdgeStyle;rounded=0;orthogonalLoop=1;jettySize=auto;html=1;" edge="1" parent="5sU5fWec5pcdOkhXHPIO-9" source="5sU5fWec5pcdOkhXHPIO-15" target="5sU5fWec5pcdOkhXHPIO-16">
          <mxGeometry relative="1" as="geometry" />
        </mxCell>
        <mxCell id="5sU5fWec5pcdOkhXHPIO-18" value="&lt;font style=&quot;font-size: 12px;&quot;&gt;وگرنه&lt;br&gt;&lt;/font&gt;" style="edgeLabel;html=1;align=center;verticalAlign=middle;resizable=0;points=[];" connectable="0" vertex="1" parent="5sU5fWec5pcdOkhXHPIO-17">
          <mxGeometry x="-0.2205" y="-2" relative="1" as="geometry">
            <mxPoint x="-13" y="-8" as="offset" />
          </mxGeometry>
        </mxCell>
        <mxCell id="5sU5fWec5pcdOkhXHPIO-19" value="بررسی اطلاعات" style="shape=mxgraph.uml25.action;html=1;align=center;verticalAlign=middle;absoluteArcSize=1;arcSize=10;dashed=0;spacingLeft=10;flipH=1;whiteSpace=wrap;" vertex="1" parent="5sU5fWec5pcdOkhXHPIO-9">
          <mxGeometry x="705" y="13" width="150" height="33" as="geometry" />
        </mxCell>
        <mxCell id="hiHx3Ub0WEwXh6XVZyqC-8" style="edgeStyle=orthogonalEdgeStyle;rounded=0;orthogonalLoop=1;jettySize=auto;html=1;" edge="1" parent="5sU5fWec5pcdOkhXHPIO-9" source="jqP7w9mGof0g6PmrAmtQ-1" target="5sU5fWec5pcdOkhXHPIO-10">
          <mxGeometry relative="1" as="geometry" />
        </mxCell>
        <mxCell id="5sU5fWec5pcdOkhXHPIO-21" value="&lt;span style=&quot;font-size: 14px;&quot;&gt;اضافه کردن کاربر به سامانه&lt;/span&gt;" style="html=1;align=center;verticalAlign=top;rounded=1;absoluteArcSize=1;arcSize=13;dashed=0;whiteSpace=wrap;" vertex="1" parent="5sU5fWec5pcdOkhXHPIO-9">
          <mxGeometry x="1227" y="60" width="140" height="40" as="geometry" />
        </mxCell>
        <mxCell id="jqP7w9mGof0g6PmrAmtQ-2" value="" style="edgeStyle=orthogonalEdgeStyle;rounded=0;orthogonalLoop=1;jettySize=auto;html=1;" edge="1" parent="5sU5fWec5pcdOkhXHPIO-9" source="5sU5fWec5pcdOkhXHPIO-21" target="jqP7w9mGof0g6PmrAmtQ-1">
          <mxGeometry relative="1" as="geometry">
            <mxPoint x="1481" y="650" as="sourcePoint" />
            <mxPoint x="1600" y="650" as="targetPoint" />
          </mxGeometry>
        </mxCell>
        <mxCell id="jqP7w9mGof0g6PmrAmtQ-1" value="" style="rhombus;" vertex="1" parent="5sU5fWec5pcdOkhXHPIO-9">
          <mxGeometry x="1406" y="65" width="30" height="30" as="geometry" />
        </mxCell>
        <mxCell id="5sU5fWec5pcdOkhXHPIO-25" style="edgeStyle=orthogonalEdgeStyle;rounded=0;orthogonalLoop=1;jettySize=auto;html=1;entryX=0;entryY=0.5;entryDx=0;entryDy=0;" edge="1" parent="5sU5fWec5pcdOkhXHPIO-1" source="5sU5fWec5pcdOkhXHPIO-11" target="5sU5fWec5pcdOkhXHPIO-6">
          <mxGeometry relative="1" as="geometry">
            <mxPoint x="323.39499999999975" y="99.72000000000003" as="targetPoint" />
          </mxGeometry>
        </mxCell>
        <mxCell id="5sU5fWec5pcdOkhXHPIO-26" style="edgeStyle=orthogonalEdgeStyle;rounded=0;orthogonalLoop=1;jettySize=auto;html=1;" edge="1" parent="5sU5fWec5pcdOkhXHPIO-1" source="5sU5fWec5pcdOkhXHPIO-8" target="5sU5fWec5pcdOkhXHPIO-19">
          <mxGeometry relative="1" as="geometry">
            <Array as="points">
              <mxPoint x="696" y="35" />
              <mxPoint x="696" y="110" />
            </Array>
          </mxGeometry>
        </mxCell>
        <mxCell id="hiHx3Ub0WEwXh6XVZyqC-7" value="اطلاعات کاربر جدید" style="edgeLabel;html=1;align=center;verticalAlign=middle;resizable=0;points=[];" connectable="0" vertex="1" parent="5sU5fWec5pcdOkhXHPIO-26">
          <mxGeometry x="-0.588" y="-1" relative="1" as="geometry">
            <mxPoint x="16" y="-13" as="offset" />
          </mxGeometry>
        </mxCell>
        <mxCell id="hiHx3Ub0WEwXh6XVZyqC-5" style="edgeStyle=orthogonalEdgeStyle;rounded=0;orthogonalLoop=1;jettySize=auto;html=1;" edge="1" parent="5sU5fWec5pcdOkhXHPIO-1" source="hiHx3Ub0WEwXh6XVZyqC-1" target="5sU5fWec5pcdOkhXHPIO-11">
          <mxGeometry relative="1" as="geometry">
            <mxPoint x="198" y="260" as="targetPoint" />
          </mxGeometry>
        </mxCell>
      </root>
    </mxGraphModel>
  </diagram>
</mxfile>
